<?xml version="1.0" standalone="no"?>
<!DOCTYPE svg PUBLIC "-//W3C//DTD SVG 1.1//EN" "http://www.w3.org/Graphics/SVG/1.1/DTD/svg11.dtd" >
<svg xmlns="http://www.w3.org/2000/svg">
<metadata>Generated by IcoMoon</metadata>
<defs>
<font id="MinSide" horiz-adv-x="1024">
<font-face units-per-em="1024" ascent="960" descent="-64" />
<missing-glyph horiz-adv-x="1024" />
<glyph unicode="&#x20;" horiz-adv-x="512" d="" />
<glyph unicode="&#xe600;" glyph-name="add-new" d="M512 960c-282.331 0-512-229.669-512-512s229.669-512 512-512 512 229.669 512 512-229.669 512-512 512zM768 396.8h-204.8v-204.8h-102.4v204.8h-204.8v102.4h204.8v204.8h102.4v-204.8h204.8v-102.4z" />
<glyph unicode="&#xe601;" glyph-name="check" horiz-adv-x="1342" d="M426.317 152.021l-318.306 318.306-108.010-108.010 426.317-426.317 915.99 915.99-108.010 108.010-807.979-807.979z" />
<glyph unicode="&#xe602;" glyph-name="document" horiz-adv-x="819" d="M156.16 437.76h506.88v-69.12h-506.88v69.12zM156.16 302.080h506.88v-69.12h-506.88v69.12zM156.16 166.4h506.88v-69.12h-506.88v69.12zM788.48 683.52l-243.2 243.2c-20.48 20.48-51.2 35.84-79.36 35.84h-363.52c-56.32 0-102.4-46.080-102.4-104.96v-819.2c0-56.32 46.080-102.4 102.4-102.4h614.4c56.32 0 102.4 43.52 102.4 99.84v570.88c0 30.72-10.24 56.32-30.72 76.8zM460.8 883.2l281.6-279.040h-253.44c-15.36 0-28.16 10.24-28.16 25.6v253.44zM742.4 74.24c0-40.96-30.72-58.88-71.68-58.88h-512c-46.080 0-81.92 25.6-81.92 71.68v709.12c0 48.64 38.4 89.6 84.48 89.6h222.72v-304.64c0-33.28 15.36-53.76 48.64-53.76h309.76v-453.12z" />
<glyph unicode="&#xe603;" glyph-name="facebook" d="M590.848-64v466.944h156.672l23.552 182.272h-180.224v116.736c0 53.248 14.336 88.064 90.112 88.064h97.28v162.816c-17.408 2.048-74.752 7.168-141.312 7.168-138.24 0-233.472-84.992-233.472-240.64v-134.144h-157.696v-182.272h157.696v-466.944h187.392z" />
<glyph unicode="&#xe604;" glyph-name="filter" horiz-adv-x="1218" d="M0 863.22h780.488v-156.098h-780.488v156.098zM1030.244 863.22h187.317v-156.098h-187.317v156.098zM896 866.341c40.585 0 74.927-34.341 74.927-74.927s-34.341-74.927-74.927-74.927-74.927 34.341-74.927 74.927 34.341 74.927 74.927 74.927zM896 960c-93.659 0-168.585-74.927-168.585-168.585s74.927-168.585 168.585-168.585c93.659 0 168.585 74.927 168.585 168.585s-74.927 168.585-168.585 168.585v0zM0 519.805h187.317v-156.098h-187.317v156.098zM405.854 519.805h811.707v-156.098h-811.707v156.098zM302.829 522.927c40.585 0 74.927-34.341 74.927-74.927s-34.341-74.927-74.927-74.927-74.927 34.341-74.927 74.927 34.341 74.927 74.927 74.927zM302.829 616.585c-93.659 0-168.585-74.927-168.585-168.585s74.927-168.585 168.585-168.585c93.659 0 168.585 74.927 168.585 168.585s-74.927 168.585-168.585 168.585v0zM0 176.39h530.732v-156.098h-530.732v156.098zM780.488 176.39h437.073v-156.098h-437.073v156.098zM646.244 179.512c40.585 0 74.927-34.341 74.927-74.927s-34.341-74.927-74.927-74.927-74.927 34.341-74.927 74.927 34.341 74.927 74.927 74.927zM646.244 273.171c-93.659 0-168.585-74.927-168.585-168.585s74.927-168.585 168.585-168.585c93.659 0 168.585 74.927 168.585 168.585s-74.927 168.585-168.585 168.585v0z" />
<glyph unicode="&#xe605;" glyph-name="gplus" d="M817.152 304.64v334.848h68.608v-334.848h-68.608zM683.008 438.784v65.536h337.92v-65.536h-337.92zM594.944 905.728h-80.896c30.72-25.6 93.184-74.752 93.184-177.152 0-99.328-57.344-146.432-114.688-190.464-17.408-17.408-37.888-35.84-37.888-65.536s20.48-45.056 35.84-57.344l49.152-37.888c59.392-50.176 114.688-95.232 114.688-187.392 0-125.952-128-254.976-361.472-254.976-198.656 1.024-289.792 94.208-289.792 193.536 0 48.128 24.576 116.736 104.448 163.84 83.968 51.2 198.656 57.344 260.096 61.44-19.456 24.576-40.96 50.176-40.96 91.136 0 22.528 7.168 35.84 13.312 52.224-15.36-1.024-29.696-3.072-43.008-3.072-144.384 1.024-225.28 106.496-225.28 210.944 0 61.44 19.456 134.144 77.824 184.32 76.8 63.488 176.128 70.656 249.856 70.656h283.648l-88.064-54.272zM239.616 295.424c-29.696-11.264-116.736-43.008-116.736-138.24s94.208-163.84 239.616-163.84c130.048 0 199.68 61.44 199.68 145.408 0 68.608-45.056 104.448-148.48 177.152-11.264 1.024-17.408 1.024-30.72 1.024-12.288 0-86.016-3.072-143.36-21.504v0zM316.416 910.848c-35.84 0-73.728-14.336-95.232-40.96-23.552-27.648-29.696-67.584-29.696-102.4 0-90.112 53.248-238.592 169.984-238.592 33.792 0 70.656 19.456 92.16 40.96 30.72 30.72 33.792 70.656 33.792 94.208 0 97.28-58.368 246.784-171.008 246.784v0z" />
<glyph unicode="&#xe606;" glyph-name="home" horiz-adv-x="1145" d="M1129.588 429.074l-510.008 511.004c-25.899 26.895-68.732 26.895-94.63 0l-510.008-511.004c-25.899-26.895-15.938-48.809 21.914-48.809h106.584v-392.467c0-27.891 0.996-51.798 52.794-51.798h248.031v393.463h258.988v-393.463h259.984c38.848 0 39.844 22.911 39.844 51.798v392.467h106.584c36.856 0 45.821 21.914 19.922 48.809z" />
<glyph unicode="&#xe607;" glyph-name="arrow-left" d="M853.333 490.667h-518.4l238.933 238.933-59.733 59.733-341.333-341.333 341.333-341.333 59.733 59.733-238.933 238.933h518.4c0 0 0 85.333 0 85.333z" />
<glyph unicode="&#xe608;" glyph-name="attachment" d="M704 704v-490.667c0-93.867-76.8-170.667-170.667-170.667s-170.667 76.8-170.667 170.667v533.333c0 59.733 46.933 106.667 106.667 106.667s106.667-46.933 106.667-106.667v-448c0-21.333-21.333-42.667-42.667-42.667s-42.667 21.333-42.667 42.667v405.333h-64v-405.333c0-59.733 46.933-106.667 106.667-106.667s106.667 46.933 106.667 106.667v448c0 93.867-76.8 170.667-170.667 170.667s-170.667-76.8-170.667-170.667v-533.333c0-128 106.667-234.667 234.667-234.667s234.667 106.667 234.667 234.667v490.667h-64z" />
<glyph unicode="&#xe609;" glyph-name="camera2" d="M384 874.667l-76.8-85.333h-136.533c-46.933 0-85.333-38.4-85.333-85.333v-512c0-46.933 38.4-85.333 85.333-85.333h682.667c46.933 0 85.333 38.4 85.333 85.333v512c0 46.933-38.4 85.333-85.333 85.333h-136.533l-76.8 85.333h-256zM512 234.667c-119.467 0-213.333 93.867-213.333 213.333s93.867 213.333 213.333 213.333 213.333-93.867 213.333-213.333c0-115.2-93.867-213.333-213.333-213.333z" />
<glyph unicode="&#xe60a;" glyph-name="checkmark-box" d="M810.667 832h-597.333c-47.36 0-85.333-38.4-85.333-85.333v-597.333c0-46.933 37.973-85.333 85.333-85.333h597.333c47.36 0 85.333 38.4 85.333 85.333v597.333c0 46.933-37.973 85.333-85.333 85.333zM426.667 234.667l-213.333 213.333 60.16 60.16 153.173-152.747 323.84 323.84 60.16-60.587-384-384z" />
<glyph unicode="&#xe60b;" glyph-name="checkmark-none" d="M810.667 746.667v-597.333h-597.333v597.333h597.333zM810.667 832h-597.333c-46.933 0-85.333-38.4-85.333-85.333v-597.333c0-46.933 38.4-85.333 85.333-85.333h597.333c46.933 0 85.333 38.4 85.333 85.333v597.333c0 46.933-38.4 85.333-85.333 85.333z" />
<glyph unicode="&#xe60c;" glyph-name="check-circle" d="M512 960c-282.624 0-512-229.376-512-512s229.376-512 512-512 512 229.376 512 512-229.376 512-512 512zM409.6 192l-256 256 72.192 72.192 183.808-183.296 388.608 388.608 72.192-72.704-460.8-460.8z" />
<glyph unicode="&#xe60d;" glyph-name="close" d="M810.667 686.293l-60.373 60.373-238.293-238.293-238.293 238.293-60.373-60.373 238.293-238.293-238.293-238.293 60.373-60.373 238.293 238.293 238.293-238.293 60.373 60.373-238.293 238.293z" />
<glyph unicode="&#xe60e;" glyph-name="icloud" d="M825.6 531.2c-29.867 147.2-157.867 258.133-313.6 258.133-123.733 0-230.4-70.4-283.733-172.8-128-12.8-228.267-121.6-228.267-253.867 0-140.8 115.2-256 256-256h554.667c117.333 0 213.333 96 213.333 213.333 0 113.067-87.467 204.8-198.4 211.2zM597.333 405.333v-170.667h-170.667v170.667h-128l213.333 213.333 213.333-213.333h-128z" />
<glyph unicode="&#xe60f;" glyph-name="comment" d="M938.24 789.333c0 46.933-37.973 85.333-84.907 85.333h-682.667c-46.933 0-85.333-38.4-85.333-85.333v-512c0-46.933 38.4-85.333 85.333-85.333h597.333l170.667-170.667-0.427 768zM768 362.667h-512v85.333h512v-85.333zM768 490.667h-512v85.333h512v-85.333zM768 618.667h-512v85.333h512v-85.333z" />
<glyph unicode="&#xe610;" glyph-name="pencil" d="M0 149.363v-213.363h213.363l629.563 629.563-213.363 213.363-629.563-629.563zM1007.358 729.995c22.19 22.19 22.19 58.319 0 80.509l-132.854 132.854c-22.19 22.19-58.319 22.19-80.509 0l-104.121-104.121 213.363-213.363 104.121 104.121z" />
<glyph unicode="&#xe611;" glyph-name="trash" horiz-adv-x="796" d="M56.889 49.778c0-62.578 51.2-113.778 113.778-113.778h455.111c62.578 0 113.778 51.2 113.778 113.778v682.667h-682.667v-682.667zM796.444 903.111h-199.111l-56.889 56.889h-284.444l-56.889-56.889h-199.111v-113.778h796.444v113.778z" />
<glyph unicode="&#xe612;" glyph-name="download" d="M810.667 576h-170.667v256h-256v-256h-170.667l298.667-298.667 298.667 298.667zM213.333 192v-85.333h597.333v85.333h-597.333z" />
<glyph unicode="&#xe613;" glyph-name="arrow-down" horiz-adv-x="1690" d="M215.793 922.195c-49.368 49.526-128.726 49.526-178.78 0-24.658-24.869-37.013-56.813-37.013-89.126 0-32.261 12.355-64.891 37.013-89.285l807.679-807.785 808.366 807.785c49.526 49.526 49.526 129.412 0 179.097-49.526 49.473-129.148 49.473-179.255 0l-629.057-629.004-628.952 628.318z" />
<glyph unicode="&#xe614;" glyph-name="new-document" horiz-adv-x="819" d="M102.4 960c-56.573 0-101.886-45.827-101.886-102.4l-0.514-819.2c0-56.573 45.313-102.4 101.886-102.4h614.914c56.557 0 102.4 45.843 102.4 102.4v569.408c0 28.809-11.445 56.436-31.812 76.804l-242.21 242.21c-21.243 21.243-50.060 33.178-80.097 33.178h-362.681zM460.8 630.746v252.45l281.604-281.604h-252.458c-16.095 0.008-29.146 13.059-29.146 29.154z" />
<glyph unicode="&#xe615;" glyph-name="calender" d="M725.333 448h-213.333v-213.333h213.333v213.333zM682.667 917.333v-85.333h-341.333v85.333h-85.333v-85.333h-42.667c-46.933 0-85.333-38.4-85.333-85.333v-597.333c0-46.933 38.4-85.333 85.333-85.333h597.333c46.933 0 85.333 38.4 85.333 85.333v597.333c0 46.933-38.4 85.333-85.333 85.333h-42.667v85.333h-85.333zM810.667 149.333h-597.333v469.333h597.333v-469.333z" />
<glyph unicode="&#xe616;" glyph-name="arrow-up" horiz-adv-x="1690" d="M1474.207-26.195c49.368-49.526 128.726-49.526 178.78 0 24.658 24.869 37.013 56.813 37.013 89.126 0 32.261-12.355 64.891-37.013 89.285l-807.679 807.785-808.366-807.785c-49.526-49.526-49.526-129.412 0-179.097 49.526-49.473 129.148-49.473 179.255 0l629.057 629.004 628.952-628.318z" />
<glyph unicode="&#xe617;" glyph-name="unlock" d="M512 234.667c46.933 0 85.333 38.4 85.333 85.333s-38.4 85.333-85.333 85.333-85.333-38.4-85.333-85.333c0-46.933 38.4-85.333 85.333-85.333zM768 618.667h-42.667v85.333c0 117.333-96 213.333-213.333 213.333s-213.333-96-213.333-213.333h81.067c0 72.533 59.733 132.267 132.267 132.267s132.267-59.733 132.267-132.267v-85.333h-388.267c-46.933 0-85.333-38.4-85.333-85.333v-426.667c0-46.933 38.4-85.333 85.333-85.333h512c46.933 0 85.333 38.4 85.333 85.333v426.667c0 46.933-38.4 85.333-85.333 85.333zM768 106.667h-512v426.667h512v-426.667z" />
<glyph unicode="&#xe618;" glyph-name="lock" d="M768 618.667h-42.667v85.333c0 117.333-96 213.333-213.333 213.333s-213.333-96-213.333-213.333v-85.333h-42.667c-46.933 0-85.333-38.4-85.333-85.333v-426.667c0-46.933 38.4-85.333 85.333-85.333h512c46.933 0 85.333 38.4 85.333 85.333v426.667c0 46.933-38.4 85.333-85.333 85.333zM512 836.267c72.533 0 132.267-59.733 132.267-132.267v-85.333h-260.267v85.333h-4.267c0 72.533 59.733 132.267 132.267 132.267zM768 106.667h-512v426.667h512v-426.667zM512 234.667c46.933 0 85.333 38.4 85.333 85.333s-38.4 85.333-85.333 85.333-85.333-38.4-85.333-85.333c0-46.933 38.4-85.333 85.333-85.333z" />
<glyph unicode="&#xe619;" glyph-name="menu" horiz-adv-x="1509" d="M0-64h1509.053v161.684h-1509.053v-161.684zM0 367.158h1509.053v161.684h-1509.053v-161.684zM0 960v-161.684h1509.053v161.684h-1509.053z" />
<glyph unicode="&#xe61a;" glyph-name="bullhorn" horiz-adv-x="1432" d="M1000.281 957.926c-12.569 4.733-26.754 1.197-35.62-8.895-89.601-102.017-286.049-190.045-568.131-254.577-0.668-0.153-1.322-0.32-1.977-0.515-195.989-44.64-363.832-61.775-365.516-61.942-16.481-1.67-29.036-15.534-29.036-32.113v-223.188c0-16.578 12.556-30.442 29.050-32.099 0.682-0.070 63.209-6.431 155.942-21.45v-354.882c0-17.817 14.449-32.266 32.266-32.266h95.489c17.817 0 32.266 14.449 32.266 32.266v325.163c17.288-3.633 34.521-7.377 51.517-11.275 282.026-64.518 478.488-152.587 568.131-254.66 6.25-7.113 15.145-10.969 24.248-10.969 3.814 0 7.656 0.668 11.372 2.074 12.569 4.733 20.893 16.759 20.893 30.192v878.943c-0.014 13.432-8.338 25.459-20.893 30.192zM956.643 123.595c-107.78 86.636-282.458 158.893-520.651 215.504v298.382c238.207 56.625 412.899 128.854 520.651 215.435v-729.321zM1116.204 686.089c3.41 0 6.89 0.543 10.301 1.698l254.549 85.759c16.885 5.693 25.96 23.984 20.281 40.868-5.693 16.885-23.97 25.96-40.868 20.281l-254.549-85.759c-16.885-5.693-25.96-23.984-20.281-40.868 4.538-13.488 17.093-21.979 30.568-21.979zM1381.053 171.757l-254.549 85.689c-16.885 5.679-35.189-3.396-40.868-20.281s3.396-35.189 20.281-40.868l254.549-85.689c3.41-1.155 6.89-1.698 10.301-1.698 13.474 0 26.030 8.505 30.568 21.979 5.679 16.885-3.396 35.189-20.281 40.868zM1399.539 483.739h-283.335c-17.817 0-32.266-14.449-32.266-32.266s14.449-32.266 32.266-32.266h283.335c17.817 0 32.266 14.449 32.266 32.266s-14.449 32.266-32.266 32.266z" />
<glyph unicode="&#xe61b;" glyph-name="menu-dot" horiz-adv-x="236" d="M118.154 723.692c65.378 0 118.154 52.775 118.154 118.154s-52.775 118.154-118.154 118.154-118.154-52.775-118.154-118.154 52.775-118.154 118.154-118.154zM118.154 566.154c-65.378 0-118.154-52.775-118.154-118.154s52.775-118.154 118.154-118.154 118.154 52.775 118.154 118.154-52.775 118.154-118.154 118.154zM118.154 172.308c-65.378 0-118.154-52.775-118.154-118.154s52.775-118.154 118.154-118.154 118.154 52.775 118.154 118.154-52.775 118.154-118.154 118.154z" />
<glyph unicode="&#xe61c;" glyph-name="print" d="M810.667 618.667h-597.333c-72.533 0-128-55.467-128-128v-256h170.667v-170.667h512v170.667h170.667v256c0 72.533-55.467 128-128 128zM682.667 149.333h-341.333v213.333h341.333v-213.333zM810.667 448c-21.333 0-42.667 21.333-42.667 42.667 0 25.6 21.333 42.667 42.667 42.667s42.667-17.067 42.667-42.667c0-21.333-21.333-42.667-42.667-42.667zM768 832h-512v-170.667h512v170.667z" />
<glyph unicode="&#xe61d;" glyph-name="radio-none" d="M512 874.667c-234.667 0-426.667-192-426.667-426.667s192-426.667 426.667-426.667 426.667 192 426.667 426.667c0 234.667-192 426.667-426.667 426.667zM512 106.667c-187.733 0-341.333 153.6-341.333 341.333s153.6 341.333 341.333 341.333 341.333-153.6 341.333-341.333c0-187.733-153.6-341.333-341.333-341.333z" />
<glyph unicode="&#xe61e;" glyph-name="group" horiz-adv-x="1609" d="M1097.143 521.143c121.417 0 218.697 98.011 218.697 219.429s-97.28 219.429-218.697 219.429-219.429-98.011-219.429-219.429 98.011-219.429 219.429-219.429zM512 521.143c121.417 0 218.697 98.011 218.697 219.429s-97.28 219.429-218.697 219.429-219.429-98.011-219.429-219.429 98.011-219.429 219.429-219.429zM512 374.857c-170.423 0-512-85.577-512-256v-182.857h1024v182.857c0 170.423-341.577 256-512 256zM1097.143 374.857c-21.211 0-45.349-1.463-70.949-3.657 84.846-61.44 144.091-144.091 144.091-252.343v-182.857h438.857v182.857c0 170.423-341.577 256-512 256z" />
<glyph unicode="&#xe61f;" glyph-name="search" d="M661.333 362.667h-34.133l-12.8 12.8c42.667 46.933 68.267 110.933 68.267 179.2 0 153.6-123.733 277.333-277.333 277.333s-277.333-123.733-277.333-277.333c0-153.6 123.733-277.333 277.333-277.333 68.267 0 132.267 25.6 179.2 68.267l12.8-12.8v-34.133l213.333-213.333 64 64-213.333 213.333zM405.333 362.667c-106.667 0-192 85.333-192 192s85.333 192 192 192 192-85.333 192-192c0-106.667-85.333-192-192-192z" />
<glyph unicode="&#xe620;" glyph-name="thumbs-up" d="M42.667 64h170.667v512h-170.667v-512zM981.333 533.333c0 46.933-38.4 85.333-85.333 85.333h-269.227l40.533 194.987 1.28 13.653c0 17.493-7.253 33.707-18.773 45.227l-45.227 44.8-280.747-281.173c-15.787-15.36-25.173-36.693-25.173-60.16v-426.667c0-46.933 38.4-85.333 85.333-85.333h384c35.413 0 65.707 21.333 78.507 52.053l128.853 300.8c3.84 9.813 5.973 20.053 5.973 31.147v81.493l-0.427 0.427 0.427 3.413z" />
<glyph unicode="&#xe621;" glyph-name="key" horiz-adv-x="1136" d="M827.077 344.615c-169.026 0-306.872 137.846-306.872 306.872 0 170.667 137.846 308.513 306.872 308.513s306.872-137.846 306.872-306.872c1.641-170.667-136.205-308.513-306.872-308.513zM827.077 795.897c-78.769 0-142.769-64-142.769-142.769s64-142.769 142.769-142.769 142.769 64 142.769 142.769c1.641 78.769-64 142.769-142.769 142.769zM597.96 581.15l100.759-129.526-597.116-464.499-100.759 129.526 597.116 464.499zM153.235 87.606l102.105 79.885 118.31-151.219-102.105-79.885-118.31 151.219zM288.22 201.546l155.097 121.344 118.31-151.219-155.097-121.344-118.31 151.219z" />
<glyph unicode="&#xe622;" glyph-name="name-id" d="M762.88 336.384c0-5.12 3.072-8.192 8.192-8.192 3.072 0 8.192 3.072 8.192 8.192v193.536c0 5.12-3.072 8.192-8.192 8.192-3.072 0-8.192-3.072-8.192-8.192v-193.536zM897.024 536.064h-47.104c-12.288 0-19.456-6.144-19.456-20.48v-165.888c0-12.288 6.144-20.48 19.456-20.48h44.032c66.56 0 107.52 43.008 107.52 104.448 0 62.464-38.912 102.4-104.448 102.4zM896 344.576h-40.96c-6.144 0-8.192 2.048-8.192 8.192v157.696c0 6.144 2.048 8.192 8.192 8.192h39.936c63.488 0 93.184-36.864 93.184-89.088-2.048-50.176-35.84-84.992-92.16-84.992zM53.248 512.512c0 5.12 2.048 6.144 3.072 6.144s3.072-3.072 5.12-5.12l113.664-172.032c3.072-3.072 6.144-11.264 17.408-11.264s17.408 8.192 17.408 20.48v177.152c0 5.12-3.072 8.192-6.144 8.192s-6.144-3.072-6.144-8.192v-176.128c0-5.12-2.048-6.144-3.072-6.144s-3.072 3.072-5.12 5.12l-113.664 172.032c-3.072 3.072-6.144 11.264-17.408 11.264s-17.408-7.168-17.408-20.48v-177.152c0-5.12 3.072-8.192 6.144-8.192s6.144 3.072 6.144 8.192v176.128zM423.936 336.384c0-5.12 3.072-8.192 6.144-8.192s6.144 3.072 6.144 8.192v177.152c0 5.12 2.048 6.144 3.072 6.144 2.048 0 5.12-3.072 5.12-5.12l63.488-89.088c2.048-3.072 3.072-3.072 6.144-3.072s5.12 2.048 6.144 3.072l64.512 89.088c0 2.048 3.072 5.12 5.12 5.12s3.072-2.048 3.072-6.144v-177.152c0-5.12 3.072-8.192 6.144-8.192s6.144 3.072 6.144 8.192v180.224c0 12.288-6.144 19.456-17.408 19.456s-14.336-6.144-17.408-11.264l-58.368-83.968-55.296 83.968c-3.072 5.12-6.144 11.264-17.408 11.264s-17.408-8.192-17.408-20.48l2.048-179.2zM328.704 439.808c3.072-3.072 8.192-3.072 11.264 0s2.048 8.192 0 11.264l-60.416 60.416c-3.072 3.072-5.12 5.12-5.12 6.144 0 2.048 2.048 3.072 5.12 3.072h90.112c5.12 0 8.192 3.072 8.192 6.144s-3.072 6.144-8.192 6.144h-93.184c-11.264 0-17.408-5.12-17.408-14.336 0-8.192 6.144-15.36 11.264-20.48l58.368-58.368zM387.072 358.912c3.072 5.12 2.048 8.192-2.048 11.264-3.072 2.048-8.192 2.048-11.264-3.072s-19.456-25.6-52.224-25.6c-26.624 0-55.296 15.36-55.296 49.152 0 29.696 28.672 43.008 32.768 44.032 5.12 2.048 6.144 6.144 5.12 9.216-2.048 3.072-6.144 5.12-11.264 3.072-8.192-3.072-43.008-19.456-43.008-58.368s31.744-63.488 67.584-63.488c38.912 2.048 62.464 17.408 69.632 33.792z" />
<glyph unicode="&#xe623;" glyph-name="pdf" horiz-adv-x="1046" d="M212.779 178.332c0 0-172.391-72.897-204.899-155.152-24.135-60.090 42.851-79.792 42.851-79.792s-52.702 35.463 34.478 119.688c73.389 71.419 127.569 115.255 127.569 115.255zM465.455 957.537c0 0-37.433-45.314-9.358-195.54 40.389-217.212 156.137-413.737 392.065-489.589 132.494-42.359 194.063-14.776 194.063-14.776s-4.433-47.284-70.926-42.359c-56.15 3.94-232.481 23.642-373.349 159.584-153.181 147.271-191.6 371.871-198.988 437.38-6.896 65.508-4.433 147.271 66.494 145.301zM22.657-41.835c0 0 55.658-14.284 121.166 79.3 77.822 111.315 174.361 271.392 214.257 355.125 129.539 272.87 163.032 412.26 163.032 412.26s5.418-146.286-53.195-272.377c-54.672-117.226-297.497-705.324-445.26-574.307zM524.56 846.222c0 0-11.329 71.419-52.21 111.315 25.612 0 73.389-32.015 52.21-111.315zM1042.717 279.796c0 0 23.642 100.479-178.794 86.195-185.197-12.806-388.125-52.702-581.203-146.778l-33.493-40.389c0 0 100.972 47.284 325.079 103.927 255.631 65.508 451.663 73.882 468.41-2.955z" />
<glyph unicode="&#xe624;" glyph-name="radio-checked" d="M512 704c-141.312 0-256-114.688-256-256s114.688-256 256-256 256 114.688 256 256-114.688 256-256 256zM512 960c-282.624 0-512-229.376-512-512s229.376-512 512-512 512 229.376 512 512-229.376 512-512 512zM512 38.4c-226.304 0-409.6 183.296-409.6 409.6s183.296 409.6 409.6 409.6 409.6-183.296 409.6-409.6-183.296-409.6-409.6-409.6z" />
<glyph unicode="&#xe625;" glyph-name="people" horiz-adv-x="2193" d="M1644.782 521.972c101.53 0 182.754 81.224 182.754 182.754s-81.224 182.754-182.754 182.754c-101.53 0-182.754-81.224-182.754-182.754s81.224-182.754 182.754-182.754zM1096.521 521.972c121.836 0 217.564 98.629 217.564 220.465s-95.728 217.564-217.564 217.564-220.465-98.629-220.465-220.465 98.629-217.564 220.465-217.564zM1096.521 374.028c-171.15 0-513.45-87.025-513.45-255.275v-182.754h1024v182.754c0 171.15-342.3 255.275-510.55 255.275zM1679.592 374.028c-20.306 0-46.414-2.901-69.62-2.901 84.125-60.918 145.042-145.042 145.042-252.374v-182.754h438.028v182.754c0 171.15-342.3 255.275-513.45 255.275zM731.014 704.725c0 101.53-81.224 182.754-182.754 182.754s-182.754-81.224-182.754-182.754 81.224-182.754 182.754-182.754 182.754 81.224 182.754 182.754zM0 118.754v-182.754h438.028v182.754c0 107.331 58.017 191.456 145.042 252.374-26.108 2.901-49.314 2.901-69.62 2.901-171.15 0-513.45-84.125-513.45-255.275z" />
<glyph unicode="&#xe626;" glyph-name="present" horiz-adv-x="891" d="M704 654.222c17.778 12.444 35.556 26.667 51.556 42.667 33.778 33.778 55.111 74.667 62.222 115.556 7.111 44.444-3.556 87.111-32 113.778-21.333 21.333-51.556 33.778-87.111 33.778-49.778 0-101.333-23.111-142.222-65.778-65.778-65.778-104.889-158.222-126.222-222.222-16 65.778-46.222 154.667-104.889 213.333-32 32-72.889 48-112 48-32 0-62.222-10.667-83.556-33.778-49.778-49.778-42.667-136.889 14.222-195.556 21.333-21.333 44.444-37.333 71.111-51.556 0 0-145.778 0-197.333 0-10.667 0-17.778-8.889-17.778-17.778v-268.444c0-10.667 8.889-17.778 17.778-17.778h26.667c10.667 0 17.778-8.889 17.778-17.778v-376.889c0-10.667 8.889-17.778 17.778-17.778h727.111c10.667 0 17.778 8.889 17.778 17.778v376.889c0 10.667 8.889 17.778 17.778 17.778h26.667c10.667 0 17.778 8.889 17.778 17.778v268.444c0 10.667-8.889 17.778-17.778 17.778l-165.333 1.778zM602.667 814.222c23.111 23.111 51.556 37.333 76.444 37.333 8.889 0 21.333-1.778 30.222-10.667 21.333-21.333 8.889-72.889-26.667-108.444s-83.556-60.444-126.222-76.444c-1.778 0-5.333-1.778-7.111-1.778h-39.111c17.778 48 46.222 113.778 92.444 160zM200.889 787.556c0 7.111 0 21.333 10.667 32 8.889 8.889 19.556 10.667 26.667 10.667v0c17.778 0 35.556-8.889 49.778-23.111 28.444-28.444 51.556-72.889 65.778-128 0-1.778 0-3.556 1.778-5.333-1.778 0-3.556 0-5.333 1.778-55.111 16-99.556 39.111-128 65.778-10.667 14.222-19.556 30.222-21.333 46.222zM364.444 48h-168.889c-10.667 0-17.778 8.889-17.778 17.778v264.889c0 10.667 8.889 17.778 17.778 17.778h168.889c10.667 0 17.778-8.889 17.778-17.778v-263.111c0-10.667-8.889-19.556-17.778-19.556zM364.444 462.222h-232.889c-10.667 0-17.778 8.889-17.778 17.778v58.667c0 10.667 8.889 17.778 17.778 17.778h232.889c10.667 0 17.778-8.889 17.778-17.778v-58.667c0-8.889-8.889-17.778-17.778-17.778zM696.889 48h-168.889c-10.667 0-17.778 8.889-17.778 17.778v264.889c0 10.667 8.889 17.778 17.778 17.778h168.889c10.667 0 17.778-8.889 17.778-17.778v-263.111c0-10.667-8.889-19.556-17.778-19.556zM759.111 462.222h-231.111c-10.667 0-17.778 8.889-17.778 17.778v58.667c0 10.667 8.889 17.778 17.778 17.778h232.889c10.667 0 17.778-8.889 17.778-17.778v-58.667c0-8.889-8.889-17.778-19.556-17.778z" />
<glyph unicode="&#xe627;" glyph-name="truck" horiz-adv-x="1408" d="M1216 704h-192v256h-896c-70.4 0-128-57.6-128-128v-704h128c0-105.6 86.4-192 192-192s192 86.4 192 192h384c0-105.6 86.4-192 192-192s192 86.4 192 192h128v320l-192 256zM320 32c-54.4 0-96 41.6-96 96s41.6 96 96 96 96-41.6 96-96-41.6-96-96-96zM1184 608l124.8-160h-284.8v160h160zM1088 32c-54.4 0-96 41.6-96 96s41.6 96 96 96 96-41.6 96-96-41.6-96-96-96z" />
<glyph unicode="&#xe628;" glyph-name="budget" horiz-adv-x="976" d="M7.225 378.259l1.459-433.459 202.844-0.376-1.459 433.459zM211.528-62.786c0 0 0 0 0 0l-202.858 0.361c-3.974 0.014-7.196 3.237-7.21 7.196l-1.459 433.459c0 1.922 0.751 3.771 2.11 5.13s3.193 2.124 5.115 2.124c0 0 0 0 0.014 0l202.844-0.376c3.974 0 7.196-3.222 7.21-7.21l1.459-433.445c0-1.936-0.751-3.771-2.11-5.13s-3.193-2.11-5.115-2.11zM15.895-47.99l188.394-0.332-1.416 418.995-188.408 0.347 1.431-419.010zM532.896-56.154l-202.844 0.385 1.163 612.027 202.844-0.385-1.163-612.027zM532.872-63.393c-0.014 0-0.014 0 0 0l-202.858 0.376c-3.988 0.014-7.225 3.251-7.21 7.239l1.142 612.013c0 1.907 0.766 3.757 2.124 5.101 1.358 1.358 2.688 2.037 5.115 2.11l202.844-0.376c3.988 0 7.225-3.251 7.21-7.239l-1.142-612.013c0-1.922-0.766-3.757-2.124-5.115-1.358-1.344-3.193-2.095-5.101-2.095zM337.268-48.582l188.394-0.347 1.113 597.563-188.394 0.347-1.113-597.563zM969.048 739.875l-212.106 212.9-212.915-212.12 111.089-0.202-1.474-796.852 202.844-0.376 1.474 796.852zM856.486-64c-0.014 0-0.014 0 0 0l-202.858 0.376c-3.988 0.014-7.225 3.251-7.21 7.239l1.474 789.627-103.864 0.202c-2.919 0-5.549 1.777-6.661 4.479s-0.491 5.809 1.575 7.861l212.9 212.106c2.832 2.832 7.398 2.818 10.216-0.014l212.12-212.9c2.066-2.081 2.688-5.173 1.546-7.875-1.127-2.688-3.757-4.45-6.661-4.45 0 0 0 0-0.014 0l-103.864 0.188-1.474-789.627c0-1.922-0.766-3.757-2.124-5.115-1.358-1.344-3.193-2.095-5.101-2.095zM660.882-49.189l188.394-0.347 1.474 789.627c0 3.988 3.237 7.21 7.225 7.21 0 0 0 0 0.014 0l93.648-0.173-194.723 195.431-195.431-194.708 93.648-0.173c3.988 0 7.225-3.251 7.21-7.239l-1.459-789.627z" />
<glyph unicode="&#xe629;" glyph-name="arrow-down2" d="M315.733 627.2l196.267-196.267 196.267 196.267 59.733-59.733-256-256-256 256 59.733 59.733z" />
<glyph unicode="&#xe62a;" glyph-name="arrow-up2" d="M708.267 268.8l-196.267 196.267-196.267-196.267-59.733 59.733 256 256 256-256-59.733-59.733z" />
<glyph unicode="&#xe62b;" glyph-name="document2" horiz-adv-x="819" d="M156.595 436.941h505.984v-67.84h-505.984v67.84zM156.595 301.261h505.984v-67.84h-505.984v67.84zM156.595 165.581h505.984v-67.84h-505.984v67.84zM787.379 684.621l-242.202 243.61c-21.248 21.248-50.048 34.586-80.102 34.586h-362.675c-56.576 0-101.888-47.232-101.888-103.808l-0.512-818.509c0-56.576 45.312-101.709 101.888-101.709h614.912c56.55 0 102.4 43.034 102.4 99.584v569.421c0 28.826-11.443 56.448-31.821 76.826zM460.8 883.2l281.6-278.784h-252.467c-16.102 0-29.133 10.24-29.133 26.317v252.467zM742.4 75.238c0-39.987-31.206-85.222-71.194-85.222h-511.923c-46.234 0-82.483 50.278-82.483 96.512v709.888c0 47.923 37.632 89.6 85.581 89.6h221.619v-305.638c0-32.666 16.486-52.762 49.178-52.762h309.222v-452.378z" />
<glyph unicode="&#xe62c;" glyph-name="arrow-left2" d="M691.2 644.267l-196.267-196.267 196.267-196.267-59.733-59.733-256 256 256 256 59.733-59.733z" />
<glyph unicode="&#xe62d;" glyph-name="arrow-right2" d="M332.8 251.733l196.267 196.267-196.267 196.267 59.733 59.733 256-256-256-256-59.733 59.733z" />
<glyph unicode="&#xe62e;" glyph-name="fire" horiz-adv-x="718" d="M640.36 502.836c-72.296 126.056-281.71 457.164-281.71 457.164s-280.424-455.852-281.101-457.031c-91.369-159.319-117.144-305.013 6.445-443.629 1.137-1.277 2.281-2.544 3.432-3.798 145.926-159.368 397.218-159.407 543.119-0.016 1.128 1.231 2.252 2.476 3.37 3.73 123.59 138.616 97.818 284.264 6.445 443.58zM173.902 181.251c-5.408 131.996 99.843 187.839 60.351 284.863 47.953-12.411 85.183-76.716 82.357-120.715 42.12 23.691 60.364 135.382 16.365 250.455 99.843-27.078 299.53-345.221 167.534-497.525-97.066-111.995-319.815-82.814-326.607 82.921z" />
<glyph unicode="&#xe62f;" glyph-name="person" d="M512 448c141.44 0 256 114.88 256 256 0 141.44-114.56 256-256 256s-256-114.56-256-256c0-141.12 114.56-256 256-256zM512 320c-170.56 0-512-85.44-512-256v-128h1024v128c0 170.56-341.44 256-512 256z" />
<glyph unicode="&#xe630;" glyph-name="camera" d="M648.533 448c0-75.405-61.128-136.533-136.533-136.533s-136.533 61.128-136.533 136.533c0 75.405 61.128 136.533 136.533 136.533s136.533-61.128 136.533-136.533zM384 874.667l-76.8-85.333h-136.533c-46.933 0-85.333-38.4-85.333-85.333v-512c0-46.933 38.4-85.333 85.333-85.333h682.667c46.933 0 85.333 38.4 85.333 85.333v512c0 46.933-38.4 85.333-85.333 85.333h-136.533l-76.8 85.333h-256zM512 234.667c-119.467 0-213.333 93.867-213.333 213.333s93.867 213.333 213.333 213.333 213.333-93.867 213.333-213.333c0-115.2-93.867-213.333-213.333-213.333z" />
<glyph unicode="&#xe631;" glyph-name="marker" horiz-adv-x="717" d="M358.4 960c-197.888 0-358.4-160.512-358.4-358.4 0-268.8 358.4-665.6 358.4-665.6s358.4 396.8 358.4 665.6c0 197.888-160.512 358.4-358.4 358.4zM358.4 473.6c-70.656 0-128 57.344-128 128s57.344 128 128 128 128-57.344 128-128-57.344-128-128-128z" />
<glyph unicode="&#xe632;" glyph-name="loundry" horiz-adv-x="922" d="M0 960v-1024h921.6v1024h-921.6zM298.701 895.457c27.054 0 48.978-21.924 48.978-48.978s-21.934-48.978-48.978-48.978c-27.044 0-48.978 21.924-48.978 48.978s21.934 48.978 48.978 48.978zM125.389 801.27c-22.886 0-41.441 18.555-41.441 41.441s18.555 41.441 41.441 41.441 41.441-18.555 41.441-41.441-18.545-41.441-41.441-41.441zM460.708 57.917c-162.304 0-293.868 131.574-293.868 293.868s131.574 293.868 293.868 293.868c162.304 0 293.868-131.574 293.868-293.868s-131.564-293.868-293.868-293.868zM223.355 355.666c0-132.127 107.11-239.237 239.237-239.237s239.247 107.11 239.247 239.237-63.785-24.494-195.912-24.494c-132.137 0-282.573 156.621-282.573 24.494z" />
<glyph unicode="&#xe633;" glyph-name="star" horiz-adv-x="1125" d="M1124.844 568.659l-245.892-273.81 26.555-358.849-346.575 137.507-348.58-137.186 31.609 358.769-241.961 274.131 366.15 84.237 199.040 306.542 194.627-306.783 365.027-84.558z" />
<glyph unicode="&#xe634;" glyph-name="heat" horiz-adv-x="1239" d="M0 960h116.706v-1024h-116.706v1024zM188.235 960h116.706v-854.588h-116.706v854.588zM376.471 960h116.706v-854.588h-116.706v854.588zM560.941 960h116.706v-854.588h-116.706v854.588zM749.176 960h116.706v-854.588h-116.706v854.588zM937.412 960h116.706v-1024h-116.706v1024zM1121.882 862.118h116.706v-188.235h-116.706v188.235z" />
<glyph unicode="&#xe635;" glyph-name="envelope" horiz-adv-x="1589" d="M52.418 864.168c43.096-23.164 639.841-343.711 662.051-355.646 22.228-11.935 51.006-17.69 80.013-17.69 28.99 0 57.768 5.756 79.996 17.69 22.21 11.935 618.955 332.482 662.051 355.646 43.114 23.146 83.933 95.832 4.696 95.832h-1493.522c-79.166 0-38.4-72.686 4.714-95.832zM1554.785 687.616c-48.958-25.547-650.328-340.021-680.307-355.646-29.996-15.66-51.006-17.69-79.996-17.69-29.007 0-49.999 2.030-80.013 17.69-29.978 15.625-631.314 330.099-680.307 355.646-34.463 17.973-34.163-3.107-34.163-19.385v-647.574c0-36.988 49.293-84.657 87.552-84.657h1413.862c38.259 0 87.552 47.669 87.552 84.657v647.574c0 16.278 0.318 37.358-34.18 19.385z" />
<glyph unicode="&#xe636;" glyph-name="phone" d="M750.933 345.6c-68.267-68.267-68.267-136.533-136.533-136.533s-136.533 68.267-204.8 136.533-136.533 136.533-136.533 204.8 68.267 68.267 136.533 136.533-136.533 273.067-204.8 273.067-204.8-204.8-204.8-204.8c0-136.533 140.254-413.321 273.067-546.133s409.6-273.067 546.133-273.067c0 0 204.8 136.533 204.8 204.8s-204.8 273.067-273.067 204.8z" />
<glyph unicode="&#xe637;" glyph-name="list" horiz-adv-x="1843" d="M0 345.6h204.8v204.8h-204.8v-204.8zM0-64h204.8v204.8h-204.8v-204.8zM0 755.2h204.8v204.8h-204.8v-204.8zM409.6 345.6h1433.6v204.8h-1433.6v-204.8zM409.6-64h1433.6v204.8h-1433.6v-204.8zM409.6 960v-204.8h1433.6v204.8h-1433.6z" />
<glyph unicode="&#xe638;" glyph-name="budget2" horiz-adv-x="977" d="M977.054 744.344h-112.963l-1.467-809.811-206.854 1.467 1.467 808.344h-111.496l215.656 215.656zM535.473 556.562l-1.467-620.562h-206.854l1.467 622.029zM206.854-64h-205.387l-1.467 440.115h205.387z" />
<glyph unicode="&#xe639;" glyph-name="thermometer" horiz-adv-x="494" d="M332.146 268.197h-2.812v554.76c0 75.687-61.2 137.043-136.887 137.043s-136.887-61.357-136.887-137.043v-554.76h2.554c-35.864-35.199-58.114-83.313-58.114-137.677 0-107.765 87.365-194.52 195.13-194.52 107.769 0 195.13 86.45 195.13 194.215 0 54.364-22.25 102.783-58.114 137.982zM194.098-15.174c-84.295 0-148.119 59.006-148.119 143.301 0 51.563 21.315 97.115 60.426 124.751v549.605c0 50.985 39.392 92.317 87.999 92.317s87.999-41.332 87.999-92.317v-549.753c39.111-27.647 61.024-73.129 61.024-124.602 0-84.295-65.029-143.301-149.328-143.301zM247.202 222.242v339.448c0 0-30.639-9.269-53.574-9.269-20.412 0-52.025 9.269-52.025 9.269v-338.885c-31.288-18.143-52.396-52.154-52.396-91.155 0-58.048 47.261-105.11 105.309-105.11 58.052 0 104.808 47.062 104.808 105.11 0 38.598-20.834 72.315-52.123 90.592z" />
<glyph unicode="&#xe63a;" glyph-name="tv" d="M981.184 671.904c-88.8 12.8-183.392 22.048-282.080 27.232l164.896 164.864-64 64-224.544-224.544c-21.024 0.352-42.176 0.544-63.456 0.544l-256 256-64-64 194.208-194.176c-120.928-4.288-236.352-14.56-343.392-29.952-27.584-107.712-42.816-226.72-42.816-351.872s15.232-244.16 42.816-351.904c143.616-20.64 302.336-32.096 469.184-32.096s325.536 11.456 469.184 32.096c27.552 107.744 42.816 226.752 42.816 351.904s-15.264 244.16-42.816 351.904zM863.904 85.408c-107.744-13.76-226.752-21.408-351.904-21.408s-244.16 7.648-351.904 21.408c-20.64 71.808-32.096 151.168-32.096 234.592 0 83.456 11.456 162.784 32.096 234.592 107.744 13.76 226.752 21.408 351.904 21.408 125.12 0 244.16-7.648 351.872-21.408 20.672-71.808 32.128-151.136 32.128-234.592 0-83.424-11.456-162.784-32.096-234.592z" />
<glyph unicode="&#xe63b;" glyph-name="key2" horiz-adv-x="815" d="M809.297 723.563c-26.248 155.584-168.227 259.487-317.123 232.038-148.876-27.418-274.492-147.131-248.234-302.714 5.653-33.51 21.326-85.963 39.852-123.589l-270.344-403.504c-9.968-14.9-15.652-41.691-12.643-59.569l17.376-102.942c3.020-17.878 19.466-29.926 36.582-26.78l79.213 14.618c17.126 3.135 38.838 18.202 48.263 33.447l106.934 172.929 0.92 1.128 72.379 13.343 124.833 202.635c41.043-7.252 99.912-4.796 134.707 1.62 148.886 27.428 213.554 191.747 187.286 347.341zM677.421 643.807c-40.97-61.105-82.745-18.024-141.258 24.774-58.461 42.799-111.489 69.119-70.561 130.214 40.949 61.126 121.541 75.984 180.045 33.186 58.493-42.788 72.703-127.048 31.775-188.174z" />
<glyph unicode="&#xe63c;" glyph-name="music" horiz-adv-x="792" d="M219.885 836.95l0.032-634.884c-34.582 7.212-74.793 4.494-114.683-10.293-89.741-33.341-121.402-114.447-97.605-181.108 23.797-66.714 93.989-93.711 183.73-60.38 76.216 28.323 126.089 91.057 124.858 150.174v524.449l379.85 87.044v-402.887c-34.582 7.212-74.793 4.494-114.683-10.293-89.741-33.341-121.402-114.447-97.605-181.108 23.797-66.714 93.989-93.711 183.73-60.38 76.216 28.323 126.089 91.057 124.858 150.174v752.541l-572.482-123.050z" />
<glyph unicode="&#xe63d;" glyph-name="persons" horiz-adv-x="1164" d="M1163.636-64c0 0-2.292 220.323-15.756 243.153-20.015 34.013-66.653 57.391-153.251 93.568-86.295 36.084-113.885 66.513-113.885 131.677 0 39.145 26.345 26.356 37.935 97.978 4.794 29.719 28.067 0.5 32.524 68.317 0 27.055-12.707 33.78-12.707 33.78s6.458 39.994 8.983 70.796c3.13 38.377-19.34 137.495-139.113 137.495-119.796 0-142.255-99.119-139.124-137.495 2.525-30.801 8.96-70.796 8.96-70.796s-12.684-6.726-12.684-33.78c4.457-67.817 27.706-38.598 32.524-68.317 11.567-71.622 37.935-58.833 37.935-97.978 0-44.3-12.823-72.553-48.14-97.443 188.544-94.383 213.818-113.617 213.818-197.993v-172.963h261.981zM594.816 239.977c-115.095 48.105-151.866 88.681-151.866 175.546 0 52.166 35.142 35.13 50.572 130.653 6.388 39.61 37.434 0.64 43.357 91.101 0 36.049-16.931 45.009-16.931 45.009s8.623 53.329 11.985 94.394c4.177 51.165-25.775 183.319-185.507 183.319-159.697 0-189.673-132.154-185.472-183.319 3.363-41.065 11.951-94.394 11.951-94.394s-16.931-8.96-16.931-45.009c5.958-90.461 36.98-51.491 43.392-91.101 15.43-95.523 50.56-78.487 50.56-130.653 0-86.865-36.794-127.441-151.855-175.546-35.072-14.662-98.071-37.364-98.071-91.997v-211.98h808.367v158.941c0 49.827-98.118 96.768-213.551 145.036z" />
<glyph unicode="&#xe63e;" glyph-name="phone2" d="M205.938 516.836c81.92-160.996 213.902-292.409 374.898-374.898l125.156 125.156c15.36 15.36 38.116 20.48 58.027 13.653 63.716-21.049 132.551-32.427 203.093-32.427 31.289 0 56.889-25.6 56.889-56.889v-198.542c0-31.289-25.6-56.889-56.889-56.889-534.187 0-967.111 432.924-967.111 967.111 0 31.289 25.6 56.889 56.889 56.889h199.111c31.289 0 56.889-25.6 56.889-56.889 0-71.111 11.378-139.378 32.427-203.093 6.258-19.911 1.707-42.098-14.222-58.027l-125.156-125.156z" />
<glyph unicode="&#xe63f;" glyph-name="details" horiz-adv-x="1638" d="M1024 140.8h-1024v-204.8h1024v204.8zM1638.4 550.4h-1638.4v-204.8h1638.4v204.8zM0 960v-204.8h1638.4v204.8h-1638.4z" />
<glyph unicode="&#xe640;" glyph-name="mail" horiz-adv-x="1280" d="M1152 960h-1024c-70.4 0-127.36-57.6-127.36-128l-0.64-768c0-70.4 57.6-128 128-128h1024c70.4 0 128 57.6 128 128v768c0 70.4-57.6 128-128 128zM1152 704l-512-320-512 320v128l512-320 512 320v-128z" />
<glyph unicode="&#xe641;" glyph-name="caret-right" horiz-adv-x="853" d="M827.375 491.793l-730.573 452.608c-53.231 34.918-96.802 9.233-96.802-57.105v-878.609c0-66.287 43.571-91.989 96.802-57.088l730.573 452.591c0 0 25.958 18.278 25.958 43.81s-25.958 43.793-25.958 43.793z" />
<glyph unicode="&#xe642;" glyph-name="caret-left" horiz-adv-x="853" d="M25.958 404.207l730.573-452.608c53.231-34.918 96.802-9.233 96.802 57.105v878.609c0 66.287-43.571 91.989-96.802 57.088l-730.573-452.591c0 0-25.958-18.278-25.958-43.81s25.958-43.793 25.958-43.793z" />
<glyph unicode="&#xe643;" glyph-name="electricity" horiz-adv-x="700" d="M391.574 614.502c-3.754 2.273 55.365 137.828 52.981 143.607-2.381 5.776-70.426 24.972-74.056 35.161-3.63 10.195 127.519 169.561 131.198 166.691 3.672-2.87-54.849-139.296-52.981-143.604 1.862-4.308 71.616-24.343 74.056-35.164 2.443-10.824-127.444-168.964-131.198-166.691zM699.531 449.406l-60.671 60.671-119.835-119.832-68.042 68.042 119.832 119.835-60.671 60.671-119.835-119.832-76.926 76.926-58.072-58.072 343.241-343.241 58.072 58.072-76.926 76.926zM197.237 136.498c111.131-111.118 258.228-24.362 348.137 50.593l-297.553 297.553c-74.946-89.919-161.701-237.029-50.584-348.146zM85.805-64.005l-85.808 85.808 128.715 128.715 85.808-85.808-128.715-128.715z" />
<glyph unicode="&#xe644;" glyph-name="cold-water" horiz-adv-x="939" d="M866.229 469.67c-68.068 118.679-265.227 430.415-265.227 430.415s-196.588-311.613-264.653-430.292c-86.026-149.996-110.291-287.165 6.068-417.669 1.072-1.204 2.15-2.395 3.231-3.576 137.389-150.041 373.975-150.083 511.338-0.016 1.062 1.162 2.12 2.333 3.176 3.515 116.358 130.505 92.094 267.629 6.068 417.624zM780.478 100.268c-39.84-48.684-103.784-79.197-169.464-79.197 163.348 77.906 212.464 268.897 137.647 484.566 0 0 32.562-54.519 51.782-91.842 58.37-113.357 36.106-245.014-19.965-313.527zM363.417 959.984l38.343-5.476-53.647-375.607-38.343 5.476 53.647 375.607zM327.957 934.177l53.924-71.899-30.984-23.238-53.924 71.899 30.984 23.238zM427.601 919.943l23.238-30.984-71.899-53.924-23.238 30.984 71.899 53.924zM287.447 858.524l78.874-105.165-30.984-23.238-78.874 105.165 30.984 23.238zM445.309 835.977l23.238-30.984-105.165-78.874-23.238 30.984 105.165 78.874zM20.355 804.040l322.756-199.451-20.36-32.948-322.756 199.451 20.36 32.948zM96.794 749.591l8.9-37.692-87.462-20.652-8.9 37.692 87.462 20.652zM99.94 823.469l20.652-87.462-37.692-8.9-20.652 87.462 37.692 8.9zM190.394 691.759l8.9-37.692-127.93-30.208-8.9 37.692 127.93 30.208zM183.982 806.102l30.208-127.93-37.692-8.9-30.208 127.93 37.692 8.9zM322.074 604.171l21.716-32.069-314.141-212.728-21.716 32.069 314.141 212.728zM88.878 438.84l38.033-7.324-16.995-88.256-38.033 7.324 16.995 88.256zM22.807 471.976l88.256-16.986-7.32-38.033-88.256 16.986 7.32 38.033zM179.989 500.524l38.033-7.324-24.858-129.090-38.033 7.324 24.858 129.090zM73.054 541.522l129.087-24.858-7.324-38.033-129.087 24.858 7.324 38.033zM289.918 465.019l-18.784 82.812-78.864 31.475 72.952 43.452 5.564 84.735 63.869-55.955 82.305 20.892z" />
</font>
</defs>
</svg>
